<?xml version="1.0" encoding="UTF-8"?>
<svg id="Layer_1" data-name="Layer 1" xmlns="http://www.w3.org/2000/svg" viewBox="0 0 160 160">
  <g>
    <path d="M75.7,101.54c-2.18-.7-5.97-1.92-9.15-5.39-1.99-2.17-3.01-4.42-3.65-5.86-1.08-2.44-1.13-3.63-1.83-5.95-.9-2.99-2.05-6.83-4.95-9.85-4.52-4.69-10.82-4.84-11.49-4.84-.24,0-.49,0-.74.02l.02-.02-12.6.1c-4.84.15-4.51-.15-4.65-1.25l-.61-7.24v7.33c.05,1.54-.4,1.22-.82,1.26l-4.06.03-.04-4.17c-.01-.91-.06-1.82-.14-2.72l-1.29-15-1.08,14.94c-.07.94-.1,1.88-.09,2.83l.04,4.14-4.67.04,4.67.26.06,5.63c0,.27-.06.83-.89.98l-1.63.26h7.41s-1.65-.16-1.95-.41c-.22-.2-.34-.64-.34-.92l-.05-5.4,3.17.18c1.41.14,1.56.39,1.7,1.5v18.87h.01c-.12,5.4,1.4,10.79,4.5,14.74,4.5,5.76,11.76,8.15,18.34,5.3,4.45-1.93,9.48-7.27,11.8-11.85,1.86,1.5,4.47,3.52,9.1,4.3,5.95.99,11.78.1,14.57-.64-3.78.12-6.77-.59-8.67-1.2ZM42.62,108.05c-9.03-1.23-12.46-21.15-4.57-31.11,2.27-2.88,5.82-4.36,9.13-2.85,5.37,2.46,9.23,14.36,9.13,19.43-.08,4.54-5.28,15.67-13.69,14.53Z"/>
    <g>
      <path d="M139.09,90.62l.05,4.61c.01.95-.02,1.89-.09,2.83l-1.08,14.94-1.29-15c-.08-.9-.12-1.81-.13-2.72l-.05-4.64h-1.74c-1.11.08-2.63.28-2.77,1.38l-.65,7.48-.52-7.56c-.14-1.11-1.02-1.12-2.13-1.19l-12.04.1h-.06c-3.72.15-7.49-.69-10.74-2.56-.32-.19-.66-.29-1.02-.36h-.01c-.33.08-.71.21-.93.54-6.7,10.21-19.74,15.54-31.11,9.01-8.63-4.96-11.33-16.35-7.65-24.76,2.14-4.88,6.13-8.63,10.32-11.59,2-1.42,4.32-2.32,6.85-2.88,5.43-1.23,11.33-.87,16.38,1.63,1.87.93,3.63,2.63,3.79,4.65.14,1.89-1.43,3.51-2.72,4.04-1.59.66-3.92.65-5.11-.52-3.51-3.47-4.03-7.42-8.91-8.98-3.42-.09-7.1.69-9.79,2.7-4.15,3.09-4.8,8.46-4.96,13.67-.31,10.26,7.04,18.33,17.34,18.84,6.31.31,12.02-2.07,15.73-7.07-1.71-1.55-2.99-3.99-1.78-6.28.01-.02.02-.03.03-.05,1.33-2.45,4.95-2.05,6.03.51,1.05,2.48,2.31,6.31,7.09,7.36,4.18.91,10.18-1.37,10.42-7.65.35-9.15-21.67-8.56-21.86-21.54-.05-3.2,1.26-6.22,3.94-8.36,7.62-6.08,18.51-5.48,23.38,1.29,1.08,1.5.89,4.24-.56,5.71-1.58,1.11-3.35,1.3-4.85-.16-2.31-2.23-.36-6.47-5.97-8.42-5.29-1.85-9.97,1.92-10.35,7.08-.61,8.31,18.3,9.25,21.54,18.31.31.89.5,1.78.57,2.67.01.05.01.11.01.16v10.74c.13,1.11,2.54,1.27,3.95,1.4l.85.05-.05-4.78c0-.28-.12-.72-.34-.92-.3-.25-1.95-.41-1.95-.41h7.41l-1.63.26c-.83.16-.89.71-.89.99l.05,5,7.01.39-7.01.06Z"/>
      <path d="M131.69,79.23v-1.39c.04.47.04.93,0,1.39Z"/>
    </g>
  </g>
  <path d="M131.69,77.66v.18s0-.11-.01-.16v-.02Z"/>
</svg>